<svg width="182" height="60" viewBox="0 0 182 60" fill="none" xmlns="http://www.w3.org/2000/svg">
<g clip-path="url(#clip0_1857_1983)">
<rect width="181.798" height="59.9999" rx="8.5552" fill="white"/>
<path d="M25.1772 31.6912H28.9632V34.1954H29.1116C29.6226 32.4195 30.9194 31.4839 32.491 31.4839C32.8866 31.4839 33.3702 31.5399 33.7218 31.6239V35.1533C33.3537 35.0301 32.6119 34.9405 32.0734 34.9405C30.348 34.9405 29.0841 36.1561 29.0841 37.9208V46.0385H25.1772V31.6912Z" fill="#2B2B2B"/>
<path d="M34.1613 42.0385C34.1613 38.8341 36.6614 37.8817 39.4474 37.6184C41.8926 37.3775 42.8542 37.2542 42.8542 36.3299V36.2738C42.8542 35.0974 42.0959 34.4139 40.7661 34.4139C39.3649 34.4139 38.5297 35.1142 38.266 36.0666L34.6558 35.7696C35.1943 33.1534 37.4142 31.5063 40.7881 31.5063C43.9202 31.5063 46.7611 32.9461 46.7611 36.3635V46.0441H43.0575V44.0553H42.9476C42.2607 45.3943 40.9145 46.3186 38.8319 46.3186C36.1504 46.313 34.1613 44.8789 34.1613 42.0385ZM42.8817 40.9125V39.3887C42.4146 39.708 41.0189 39.9097 40.1672 40.0329C38.7935 40.229 37.8868 40.778 37.8868 41.9041C37.8868 42.9965 38.7495 43.5679 39.9474 43.5679C41.6673 43.5679 42.8817 42.4195 42.8817 40.9125Z" fill="#2B2B2B"/>
<path d="M48.8275 31.7134H52.6739V34.1224H52.8498C53.3718 32.9571 54.4983 31.5229 56.8556 31.5229C59.9437 31.5229 62.5538 33.9711 62.5538 38.9067C62.5538 43.7078 60.0536 46.296 56.8446 46.296C54.5697 46.296 53.3883 44.9571 52.8498 43.7638H52.7289V51.4445H48.8275V31.7134ZM55.6082 43.1308C57.526 43.1308 58.57 41.3941 58.57 38.8899C58.57 36.4025 57.5424 34.6938 55.6082 34.6938C53.7125 34.6938 52.6465 36.3297 52.6465 38.8899C52.6465 41.4501 53.729 43.1308 55.6082 43.1308Z" fill="#2B2B2B"/>
<path d="M63.9712 31.7134H67.8231V34.1224H67.999C68.521 32.9571 69.6474 31.5229 72.0048 31.5229C75.0929 31.5229 77.703 33.9711 77.703 38.9067C77.703 43.7078 75.2028 46.296 71.9938 46.296C69.7189 46.296 68.5375 44.9571 67.999 43.7638H67.8781V51.4445H63.9712V31.7134ZM70.7519 43.1308C72.6696 43.1308 73.7137 41.3941 73.7137 38.8899C73.7137 36.4025 72.6861 34.6938 70.7519 34.6938C68.8562 34.6938 67.7902 36.3297 67.7902 38.8899C67.7902 41.4501 68.8781 43.1308 70.7519 43.1308Z" fill="#2B2B2B"/>
<path d="M79.011 38.9574C79.011 34.526 81.698 31.5288 85.8412 31.5288C89.5612 31.5288 92.457 33.9378 92.457 38.8173V39.9097H82.8684V39.9209C82.8684 42.061 84.1048 43.3775 86.0555 43.3775C87.3577 43.3775 88.3633 42.8061 88.7589 41.7137L92.3691 41.9546C91.8196 44.6156 89.4733 46.3467 85.9895 46.3467C81.6595 46.3467 79.011 43.5064 79.011 38.9574ZM88.7809 37.4448C88.7699 35.7361 87.5995 34.5036 85.9016 34.5036C84.1707 34.5036 82.9508 35.8145 82.8684 37.4448H88.7809Z" fill="#2B2B2B"/>
<path d="M11.407 27.0918V30.4251H15.3743H23.0122H23.8365V27.0918H11.407Z" fill="#2B2B2B"/>
<path d="M11.407 35.5962V46.0443H15.3743V38.9351H23.0122V35.5962H15.3743H11.407Z" fill="#2B2B2B"/>
<path d="M14.956 18.6817C14.2951 18.6817 13.729 18.5763 13.258 18.3653C12.7869 18.1544 12.4248 17.8485 12.1716 17.4478C11.9185 17.047 11.7919 16.5636 11.7919 15.9976H13.316C13.323 16.2858 13.3933 16.5337 13.5269 16.7411C13.6605 16.9485 13.8503 17.1067 14.0964 17.2157C14.3425 17.3247 14.6326 17.3792 14.9665 17.3792C15.2724 17.3792 15.5378 17.337 15.7628 17.2526C15.9913 17.1647 16.1689 17.0435 16.2955 16.8888C16.422 16.7341 16.4853 16.553 16.4853 16.3456C16.4853 16.1698 16.4361 16.0187 16.3376 15.8921C16.2392 15.7655 16.0863 15.6548 15.8788 15.5599C15.6714 15.4649 15.4007 15.3806 15.0667 15.3067L14.2335 15.1222C13.4671 14.9534 12.8941 14.6898 12.5144 14.3312C12.1382 13.9691 11.9501 13.5085 11.9501 12.9495C11.9501 12.4749 12.0732 12.0601 12.3193 11.705C12.5689 11.3464 12.9152 11.0687 13.3582 10.8718C13.8046 10.6714 14.3214 10.5712 14.9085 10.5712C15.5062 10.5712 16.023 10.6732 16.4589 10.8771C16.8949 11.081 17.2341 11.371 17.4767 11.7472C17.7193 12.1198 17.8494 12.5646 17.8669 13.0814H16.3798C16.3517 12.7087 16.2058 12.4151 15.9421 12.2007C15.682 11.9862 15.3392 11.879 14.9138 11.879C14.6431 11.879 14.4023 11.9212 14.1914 12.0056C13.9839 12.09 13.8205 12.2077 13.7009 12.3589C13.5849 12.5066 13.5269 12.6771 13.5269 12.8704C13.5269 13.0392 13.5744 13.1851 13.6693 13.3081C13.7677 13.4276 13.9171 13.5314 14.1175 13.6192C14.3214 13.7071 14.5798 13.7862 14.8927 13.8566L15.6468 14.0253C16.0546 14.1132 16.408 14.2239 16.7068 14.3575C17.0091 14.4876 17.2587 14.644 17.4556 14.8269C17.656 15.0062 17.8037 15.2153 17.8986 15.4544C17.997 15.6899 18.0462 15.9554 18.0462 16.2507C18.0462 16.7499 17.9214 17.1823 17.6718 17.548C17.4257 17.9101 17.0706 18.1896 16.6066 18.3864C16.146 18.5833 15.5958 18.6817 14.956 18.6817ZM21.5917 10.6978V18.5552H20.0149V10.6978H21.5917ZM23.7924 18.5552V10.6978H25.3691V17.2052H28.934V18.5552H23.7924ZM32.1735 18.5552L29.405 10.6978H31.1241L32.4214 14.579C32.569 15.0396 32.7237 15.5458 32.8854 16.0978C33.0472 16.6462 33.2229 17.2491 33.4128 17.9065H32.9751C33.1579 17.2456 33.3284 16.6409 33.4866 16.0925C33.6448 15.544 33.7925 15.0396 33.9296 14.579L35.1899 10.6978H36.888L34.1774 18.5552H32.1735ZM38.5508 18.5552V10.6978H44.1143V12.0478H40.1276V13.9251H43.8137V15.2435H40.1276V17.2052H44.1143V18.5552H38.5508ZM46.0724 18.5552V10.6978H49.1943C49.7814 10.6978 50.2876 10.8032 50.713 11.0142C51.1419 11.2216 51.4706 11.5169 51.6991 11.9001C51.9312 12.2833 52.0472 12.7368 52.0472 13.2607C52.0472 13.7774 51.9259 14.2257 51.6833 14.6054C51.4443 14.9815 51.1032 15.2716 50.6603 15.4755C50.2208 15.6794 49.7023 15.7814 49.1046 15.7814H47.0163V14.5052H49.0782C49.3771 14.5052 49.632 14.4542 49.8429 14.3523C50.0538 14.2503 50.2155 14.1062 50.328 13.9198C50.4405 13.7335 50.4968 13.5138 50.4968 13.2607C50.4968 13.004 50.4388 12.7825 50.3228 12.5962C50.2103 12.4099 50.0486 12.2657 49.8376 12.1638C49.6267 12.0618 49.3718 12.0109 49.073 12.0109H47.6491V18.5552H46.0724ZM50.5284 18.5552L48.7091 15.0009H50.3808L52.2318 18.5552H50.5284ZM57.4136 18.5552V10.6978H60.488C61.0787 10.6978 61.5867 10.8032 62.0121 11.0142C62.441 11.2251 62.7697 11.5239 62.9982 11.9107C63.2302 12.2939 63.3462 12.7474 63.3462 13.2712C63.3462 13.795 63.2285 14.2503 62.9929 14.637C62.7609 15.0202 62.4287 15.3173 61.9962 15.5282C61.5673 15.7392 61.0576 15.8446 60.467 15.8446H58.3048V14.521H60.372C60.6709 14.521 60.9257 14.47 61.1367 14.3681C61.3476 14.2661 61.5093 14.122 61.6218 13.9357C61.7379 13.7458 61.7959 13.5243 61.7959 13.2712C61.7959 13.0146 61.7379 12.7931 61.6218 12.6067C61.5093 12.4204 61.3476 12.2763 61.1367 12.1743C60.9257 12.0724 60.6709 12.0214 60.372 12.0214H58.9904V18.5552H57.4136ZM63.7751 18.5552L66.5384 10.6978H68.5581L71.3266 18.5552H69.5811L68.3155 14.6739C68.1643 14.1888 68.0096 13.6808 67.8514 13.1499C67.6968 12.6191 67.5262 12.0161 67.3399 11.3411H67.7618C67.572 12.0161 67.3979 12.6191 67.2397 13.1499C67.085 13.6808 66.9304 14.1888 66.7757 14.6739L65.4784 18.5552H63.7751ZM65.5048 16.7991V15.5335H69.6022V16.7991H65.5048ZM72.9842 18.5552V10.6978H76.106C76.6932 10.6978 77.1994 10.8032 77.6248 11.0142C78.0537 11.2216 78.3824 11.5169 78.6109 11.9001C78.843 12.2833 78.959 12.7368 78.959 13.2607C78.959 13.7774 78.8377 14.2257 78.5951 14.6054C78.356 14.9815 78.015 15.2716 77.5721 15.4755C77.1326 15.6794 76.6141 15.7814 76.0164 15.7814H73.9281V14.5052H75.99C76.2889 14.5052 76.5437 14.4542 76.7547 14.3523C76.9656 14.2503 77.1273 14.1062 77.2398 13.9198C77.3523 13.7335 77.4086 13.5138 77.4086 13.2607C77.4086 13.004 77.3506 12.7825 77.2346 12.5962C77.1221 12.4099 76.9603 12.2657 76.7494 12.1638C76.5385 12.0618 76.2836 12.0109 75.9848 12.0109H74.5609V18.5552H72.9842ZM77.4402 18.5552L75.6209 15.0009H77.2926L79.1435 18.5552H77.4402ZM80.4161 12.0478V10.6978H86.7812V12.0478H84.387V18.5552H82.8103V12.0478H80.4161ZM88.6285 18.5552V10.6978H90.3108L92.8737 14.7847C92.958 14.9148 93.0582 15.0853 93.1742 15.2962C93.2938 15.5036 93.4203 15.7286 93.5539 15.9712C93.6875 16.2138 93.8141 16.4511 93.9336 16.6831L93.7596 17.0417C93.7455 16.7991 93.7332 16.5231 93.7227 16.2138C93.7121 15.9044 93.7033 15.6073 93.6963 15.3226C93.6928 15.0378 93.691 14.8146 93.691 14.6528V10.6978H95.2678V18.5552H93.5856L91.26 14.8585C91.1615 14.6968 91.0403 14.4946 90.8961 14.2521C90.752 14.0095 90.592 13.7335 90.4162 13.4241C90.244 13.1112 90.0594 12.7773 89.8625 12.4222L90.1315 12.2534C90.1526 12.6401 90.1684 13.004 90.1789 13.345C90.193 13.6825 90.2018 13.9814 90.2053 14.2415C90.2088 14.5017 90.2106 14.7056 90.2106 14.8532V18.5552H88.6285ZM97.4685 18.5552V10.6978H103.032V12.0478H99.0453V13.9251H102.731V15.2435H99.0453V17.2052H103.032V18.5552H97.4685ZM104.99 18.5552V10.6978H108.112C108.699 10.6978 109.205 10.8032 109.631 11.0142C110.06 11.2216 110.388 11.5169 110.617 11.9001C110.849 12.2833 110.965 12.7368 110.965 13.2607C110.965 13.7774 110.844 14.2257 110.601 14.6054C110.362 14.9815 110.021 15.2716 109.578 15.4755C109.139 15.6794 108.62 15.7814 108.022 15.7814H105.934V14.5052H107.996C108.295 14.5052 108.55 14.4542 108.761 14.3523C108.972 14.2503 109.133 14.1062 109.246 13.9198C109.358 13.7335 109.414 13.5138 109.414 13.2607C109.414 13.004 109.356 12.7825 109.24 12.5962C109.128 12.4099 108.966 12.2657 108.755 12.1638C108.544 12.0618 108.289 12.0109 107.991 12.0109H106.567V18.5552H104.99ZM109.446 18.5552L107.627 15.0009H109.298L111.149 18.5552H109.446Z" fill="#2B2B2B"/>
<path d="M164.095 -9.8327C164.565 -10.351 165.38 -10.351 165.851 -9.8327L169.263 -6.07316C169.588 -5.71617 170.095 -5.59096 170.548 -5.75646L175.317 -7.49933C175.975 -7.73962 176.696 -7.36097 176.872 -6.68335L178.147 -1.76842C178.268 -1.3017 178.66 -0.954769 179.137 -0.890857L184.17 -0.217797C184.864 -0.125003 185.327 0.545561 185.168 1.22724L184.012 6.17162C183.903 6.64112 184.088 7.13031 184.482 7.40899L188.625 10.3438C189.196 10.7484 189.295 11.5573 188.837 12.0868L185.516 15.928C185.201 16.2927 185.138 16.8121 185.357 17.2417L187.662 21.7659C187.979 22.3897 187.69 23.1515 187.039 23.4077L182.313 25.2656C181.865 25.442 181.568 25.8726 181.562 26.3547L181.5 31.4319C181.492 32.1319 180.882 32.6722 180.186 32.5962L175.138 32.0453C174.659 31.993 174.196 32.2361 173.967 32.6603L171.553 37.1273C171.22 37.7432 170.429 37.9382 169.848 37.5476L165.634 34.714C165.234 34.4449 164.711 34.4449 164.311 34.714L160.098 37.5476C159.517 37.9382 158.726 37.7432 158.393 37.1273L155.979 32.6603C155.75 32.2361 155.286 31.993 154.807 32.0453L149.759 32.5962C149.064 32.6722 148.454 32.1319 148.445 31.4319L148.384 26.3547C148.378 25.8726 148.081 25.442 147.632 25.2656L142.906 23.4077C142.255 23.1515 141.966 22.3897 142.284 21.7659L144.589 17.2417C144.808 16.8121 144.745 16.2927 144.429 15.928L141.109 12.0868C140.651 11.5573 140.749 10.7484 141.32 10.3438L145.464 7.40899C145.857 7.13031 146.043 6.64112 145.933 6.17162L144.778 1.22724C144.618 0.54556 145.081 -0.125003 145.775 -0.217797L150.808 -0.890857C151.286 -0.954769 151.677 -1.3017 151.798 -1.76842L153.073 -6.68335C153.249 -7.36097 153.97 -7.73962 154.628 -7.49933L159.397 -5.75646C159.85 -5.59096 160.358 -5.71617 160.682 -6.07316L164.095 -9.8327Z" fill="#7C7C7C"/>
<rect width="23.2542" height="23.2542" transform="translate(153.444 3.73389)" fill="#7C7C7C"/>
<path d="M171.908 8.17383C172.432 7.56654 173.35 7.50017 173.957 8.02441C174.565 8.54906 174.632 9.46673 174.108 10.0742L163.337 22.5449C163.065 22.8606 162.669 23.0444 162.252 23.0488C161.835 23.053 161.436 22.8774 161.157 22.5674L156.055 16.8984C155.519 16.3019 155.566 15.3835 156.162 14.8467C156.759 14.3099 157.678 14.3581 158.215 14.9541L162.214 19.3975L171.908 8.17383Z" fill="white"/>
</g>
<rect x="1.0694" y="1.0694" width="179.659" height="57.8611" rx="7.4858" stroke="#2B2B2B" stroke-width="2.1388"/>
<defs>
<clipPath id="clip0_1857_1983">
<rect width="181.798" height="59.9999" rx="8.5552" fill="white"/>
</clipPath>
</defs>
</svg>
